<?xml version="1.0"?>
<svg xmlns="http://www.w3.org/2000/svg" xmlns:xlink="http://www.w3.org/1999/xlink" xmlns:svgjs="http://svgjs.com/svgjs" version="1.1" width="512" height="512" x="0" y="0" viewBox="0 0 32 32" style="enable-background:new 0 0 512 512" xml:space="preserve" class=""><g><path xmlns="http://www.w3.org/2000/svg" d="m26 32h-20c-3.314 0-6-2.686-6-6v-20c0-3.314 2.686-6 6-6h20c3.314 0 6 2.686 6 6v20c0 3.314-2.686 6-6 6z" fill="#435d5f" data-original="#e3f8fa" style="" class=""/><path xmlns="http://www.w3.org/2000/svg" d="m8.064 15.495c.178.518.682.857 1.2.879.243.036.429-.057 2.061-.6l1.082 3.215-1.621.539c-.679.222-1.039.961-.821 1.64.178.518.682.857 1.2.879.243.036.429-.057 2.061-.6l.561 1.679c.211.603.882 1.036 1.643.818.682-.222 1.039-.957.821-1.64l-.561-1.679 3.343-1.118.561 1.679c.211.603.882 1.036 1.643.818.682-.222 1.039-.957.821-1.64l-.561-1.679 1.621-.539c.679-.214 1.039-.954.818-1.632l-.001-.001c-.222-.679-.961-1.039-1.643-.818l-1.621.539-1.082-3.215 1.621-.539c.682-.222 1.039-.957.821-1.64-.222-.679-.961-1.039-1.643-.818l-1.621.539-.561-1.679c-.222-.679-.961-1.039-1.643-.818-.682.222-1.039.957-.821 1.64l.561 1.679-3.336 1.114-.561-1.679c-.222-.679-.961-1.039-1.643-.818-.682.222-1.039.957-.821 1.64l.561 1.679-1.618.536c-.682.222-1.039.958-.821 1.64zm9.052-1.636 1.082 3.222-3.34 1.118-1.082-3.222z" fill="#26c6da" data-original="#26c6da" style="" class=""/></g></svg>
